<?xml version="1.0" encoding="utf-8"?>
<svg viewBox="83 -74 1024 500" xmlns="http://www.w3.org/2000/svg" xmlns:bx="https://boxy-svg.com">
  <defs>
    <style id="bx-google-fonts">@import url(https://fonts.googleapis.com/css?family=Roboto:100,300,500,700,900,100italic,300italic,400,400italic,500italic,700italic,900italic|Ubuntu+Mono:400,400italic,700,700italic);</style>
    <linearGradient id="gradient-0" gradientUnits="userSpaceOnUse" x1="419.706" y1="-73.975" x2="419.706" y2="399.678" spreadMethod="pad" gradientTransform="matrix(0.997597, -0.069284, 0.034804, 0.501138, -12.901938, 228.463034)">
      <stop offset="0" style="stop-color: rgba(12, 70, 0, 1)"/>
      <stop offset="1" style="stop-color: rgb(6, 37, 0);"/>
    </linearGradient>
    <linearGradient id="gradient-1" gradientUnits="userSpaceOnUse" x1="154.194" y1="23.569" x2="154.194" y2="408.57" gradientTransform="matrix(0.999794, -0.020295, 0.007561, 0.372464, -3.057318, 259.521902)">
      <stop offset="0" style="stop-color: rgba(12, 70, 0, 1)"/>
      <stop offset="1" style="stop-color: rgb(8, 49, 0);"/>
    </linearGradient>
    <linearGradient id="gradient-2" gradientUnits="userSpaceOnUse" x1="594.935" y1="-73.948" x2="594.935" y2="426.052">
      <stop offset="0" style="stop-color: rgba(219, 245, 255, 1)"/>
      <stop offset="1" style="stop-color: rgb(144, 197, 218);"/>
    </linearGradient>
  </defs>
  <rect x="82.935" y="-73.948" width="1024" height="500" style="fill: url(#gradient-2);"/>
  <path d="M 225.383 23.569 L 83.005 408.57 L 206.74 390.186 C 206.74 390.186 184.127 312.227 192.503 220.926 C 198.553 154.988 225.383 23.569 225.383 23.569 Z" style="stroke: black; stroke-width: 0; fill: url(#gradient-1);" bx:origin="-0.593 -0.253"/>
  <path d="M 272.499 77.223 L 451.169 -73.975 C 451.169 -73.975 443.805 38.293 472.876 127.759 C 517.109 263.885 583.005 356.55 583.005 356.55 L 256.408 399.678 L 272.499 77.223 Z" style="stroke: black; stroke-width: 0; fill: url(#gradient-0);" bx:origin="-0.789 0"/>
  <path d="M 270.273 135.967 L 449.283 1.438" style="fill: none; stroke: rgb(44, 88, 35);" bx:origin="-1.517 -0.56"/>
  <path d="M 264.721 222.05 L 459.25 80.277" style="fill: none; stroke: rgb(44, 88, 35);" bx:origin="-1.368 -1.087"/>
  <path d="M 261.478 304.647 L 484.981 167.531" style="fill: none; stroke: rgb(44, 88, 35);" bx:origin="-1.176 -1.76"/>
  <path d="M 255.269 392.867 L 519.127 248.507" style="fill: none; stroke: rgb(44, 88, 35);" bx:origin="-0.973 -2.233"/>
  <path d="M 253.932 9.872 C 255.523 -18.656 279.742 -29.375 279.742 -29.375 L 255.585 426.025 L 230.983 426.025 C 230.983 426.025 248.19 112.831 253.932 9.872 Z" style="fill: rgb(173, 173, 173);" bx:origin="-4.765 -0.098"/>
  <path d="M 248.625 104.332 L 272.943 99.081 C 272.943 99.081 273.193 103.978 273.047 106.42 C 272.929 108.397 272.256 112.308 272.256 112.308 L 247.808 118.194 C 247.808 118.194 247.601 113.535 247.737 111.213 C 247.874 108.904 248.625 104.332 248.625 104.332 Z" style="stroke: black; stroke-width: 0; fill: rgb(208, 208, 208);" bx:origin="-9.728 -9.047"/>
  <path d="M 245.56 156.123 L 270.2 150.872 C 270.2 150.872 270.453 155.77 270.305 158.212 C 270.186 160.188 269.504 164.1 269.504 164.1 L 244.733 169.984 C 244.733 169.984 244.521 165.326 244.661 163.004 C 244.799 160.696 245.56 156.123 245.56 156.123 Z" style="stroke: black; stroke-width: 0; fill: rgb(208, 208, 208);" bx:origin="-9.482 -11.757"/>
  <path d="M 242.853 208.629 L 267.546 203.378 C 267.546 203.378 267.801 208.275 267.652 210.718 C 267.533 212.694 266.85 216.606 266.85 216.606 L 242.025 222.49 C 242.025 222.49 241.813 217.832 241.952 215.509 C 242.091 213.201 242.853 208.629 242.853 208.629 Z" style="stroke: black; stroke-width: 0; fill: rgb(208, 208, 208);" bx:origin="-9.357 -14.505"/>
  <path d="M 240.012 262.821 L 264.973 257.57 C 264.973 257.57 265.231 262.469 265.08 264.91 C 264.959 266.888 264.269 270.799 264.269 270.799 L 239.175 276.682 C 239.175 276.682 238.961 272.025 239.102 269.703 C 239.242 267.394 240.012 262.821 240.012 262.821 Z" style="stroke: black; stroke-width: 0; fill: rgb(208, 208, 208);" bx:origin="-9.148 -17.34"/>
  <path d="M 236.854 316.374 L 261.62 311.123 C 261.62 311.123 261.875 316.021 261.727 318.464 C 261.606 320.44 260.921 324.351 260.921 324.351 L 236.021 330.235 C 236.021 330.235 235.81 325.577 235.95 323.255 C 236.089 320.947 236.854 316.374 236.854 316.374 Z" style="stroke: black; stroke-width: 0; fill: rgb(208, 208, 208);" bx:origin="-9.099 -20.142"/>
  <path d="M 443.227 247.539 C 431.754 247.312 417.419 240.15 405.637 222.919 C 405.479 222.773 397.398 232.676 397.517 232.412 C 408.737 247.936 423.006 259.658 437.213 260.692 C 469.613 263.052 486.25 240.417 485.857 220.291 C 485.477 200.706 468.623 182.955 440.123 182.843 C 396.674 182.669 379.371 243.981 340.658 247.901 C 317.811 250.214 303.567 233.954 305.969 217.383 C 311.257 180.885 363.478 185.968 381.99 210.561 C 383.135 209.908 389.221 203.388 390.541 202.471 C 386.441 197.43 379.316 191.148 370.37 185.528 C 334.86 163.21 290.188 184.635 286.458 214.8 C 283.781 236.44 299.593 268.031 336.103 267.247 C 385.624 266.184 401.382 196.069 440.681 195.655 C 463.072 195.42 472.41 209.013 472.282 221.023 C 472.174 231.133 461.002 247.895 443.227 247.539 Z" style="stroke: rgba(0, 2, 115, 0.670588); stroke-opacity: 0.5; stroke-width: 0; fill: rgb(255, 255, 255);" bx:origin="-1.408 -2.261"/>
  <text x="582.257" y="178.345" style="fill: rgb(56, 56, 56); font-family: &quot;Ubuntu Mono&quot;; font-size: 194.6px; white-space: pre;">Score</text>
  <text x="594.587" y="227.244" style="fill: rgb(47, 47, 47); font-size: 40px; letter-spacing: 15px; white-space: pre;">Planning Poker</text>
</svg>