<?xml version="1.0" encoding="utf-8"?>
<svg viewBox="0 0 512 512" xmlns="http://www.w3.org/2000/svg" xmlns:bx="https://boxy-svg.com">
  <defs>
    <linearGradient id="gradient-0" gradientUnits="userSpaceOnUse" x1="344.764" y1="0.082" x2="344.764" y2="485.102" gradientTransform="matrix(0.999396, 0.034752, -0.018564, 0.533844, -9.794448, 201.146424)">
      <stop offset="0" style="stop-color: rgb(13, 80, 0);"/>
      <stop offset="1" style="stop-color: rgb(7, 41, 0);"/>
    </linearGradient>
    <linearGradient id="gradient-1" gradientUnits="userSpaceOnUse" x1="72.879" y1="99.967" x2="72.879" y2="494.208" gradientTransform="matrix(0.998984, 0.045062, -0.025051, 0.555352, 12.454229, 216.464618)">
      <stop offset="0" style="stop-color: rgba(12, 70, 0, 1)"/>
      <stop offset="1" style="stop-color: rgb(8, 47, 0);"/>
    </linearGradient>
  </defs>
  <path d="M 145.777 99.967 L -0.018 494.208 L 126.687 475.382 C 126.687 475.382 103.531 395.553 112.108 302.061 C 118.303 234.54 145.777 99.967 145.777 99.967 Z" style="stroke: black; stroke-width: 0; fill: url(#gradient-1);"/>
  <path d="M 194.024 154.908 L 376.982 0.082 C 376.982 0.082 369.441 115.044 399.21 206.657 C 444.504 346.051 511.982 440.94 511.982 440.94 L 177.546 485.102 L 194.024 154.908 Z" style="stroke: black; stroke-width: 0; fill: url(#gradient-0);"/>
  <path d="M 191.744 215.063 L 375.05 77.304" style="fill: none; stroke: rgb(44, 88, 35);"/>
  <path d="M 186.059 303.212 L 385.258 158.036" style="fill: none; stroke: rgb(44, 88, 35);"/>
  <path d="M 182.738 387.791 L 411.605 247.384" style="fill: none; stroke: rgb(44, 88, 35);"/>
  <path d="M 176.38 478.129 L 446.571 330.303" style="fill: none; stroke: rgb(44, 88, 35);"/>
  <path d="M 175.012 85.941 C 176.641 56.729 201.441 45.752 201.441 45.752 L 176.704 512.082 L 151.512 512.082 C 151.512 512.082 169.132 191.371 175.012 85.941 Z" style="fill: rgb(173, 173, 173);" bx:origin="-20 0"/>
  <path d="M 169.577 182.668 L 194.478 177.291 C 194.478 177.291 194.735 182.306 194.585 184.807 C 194.464 186.831 193.775 190.836 193.775 190.836 L 168.741 196.862 C 168.741 196.862 168.528 192.092 168.668 189.714 C 168.808 187.35 169.577 182.668 169.577 182.668 Z" style="stroke: black; stroke-width: 0; fill: rgb(208, 208, 208);"/>
  <path d="M 166.439 235.702 L 191.669 230.325 C 191.669 230.325 191.929 235.341 191.777 237.842 C 191.655 239.865 190.957 243.871 190.957 243.871 L 165.591 249.896 C 165.591 249.896 165.375 245.126 165.517 242.748 C 165.659 240.385 166.439 235.702 166.439 235.702 Z" style="stroke: black; stroke-width: 0; fill: rgb(208, 208, 208);"/>
  <path d="M 163.667 289.468 L 188.952 284.091 C 188.952 284.091 189.213 289.106 189.061 291.607 C 188.938 293.631 188.239 297.637 188.239 297.637 L 162.818 303.662 C 162.818 303.662 162.601 298.892 162.744 296.514 C 162.886 294.15 163.667 289.468 163.667 289.468 Z" style="stroke: black; stroke-width: 0; fill: rgb(208, 208, 208);"/>
  <path d="M 160.758 344.961 L 186.317 339.584 C 186.317 339.584 186.581 344.6 186.427 347.1 C 186.303 349.125 185.596 353.13 185.596 353.13 L 159.9 359.155 C 159.9 359.155 159.681 354.386 159.825 352.008 C 159.969 349.644 160.758 344.961 160.758 344.961 Z" style="stroke: black; stroke-width: 0; fill: rgb(208, 208, 208);"/>
  <path d="M 157.523 399.799 L 182.884 394.423 C 182.884 394.423 183.145 399.438 182.994 401.939 C 182.87 403.963 182.168 407.968 182.168 407.968 L 156.671 413.993 C 156.671 413.993 156.454 409.224 156.598 406.846 C 156.74 404.482 157.523 399.799 157.523 399.799 Z" style="stroke: black; stroke-width: 0; fill: rgb(208, 208, 208);"/>
  <path d="M 368.849 329.312 C 357.101 329.079 342.422 321.746 330.357 304.101 C 330.195 303.951 321.921 314.093 322.043 313.822 C 333.531 329.719 348.143 341.722 362.691 342.781 C 395.869 345.198 412.905 322.02 412.503 301.41 C 412.113 281.355 394.855 263.178 365.671 263.063 C 321.179 262.886 303.461 325.669 263.819 329.683 C 240.424 332.051 225.837 315.401 228.297 298.432 C 233.713 261.059 287.187 266.264 306.142 291.446 C 307.315 290.779 313.547 284.101 314.899 283.163 C 310.7 278.001 303.404 271.567 294.244 265.813 C 257.881 242.96 212.137 264.898 208.318 295.788 C 205.577 317.947 221.769 350.296 259.154 349.493 C 309.864 348.404 326.001 276.606 366.242 276.183 C 389.171 275.943 398.733 289.861 398.602 302.16 C 398.491 312.512 387.051 329.676 368.849 329.312 Z" style="stroke: rgba(0, 2, 115, 0.670588); stroke-opacity: 0.5; stroke-width: 0; fill: rgb(255, 255, 255);"/>
</svg>